<svg xmlns="http://www.w3.org/2000/svg" version="1.1" xmlns:xlink="http://www.w3.org/1999/xlink" xmlns:svgjs="http://svgjs.dev/svgjs" width="128" height="128" viewBox="0 0 128 128"><g transform="matrix(0.8046875,0,0,0.8046875,12.333870967741937,16.662984970084693)"><svg viewBox="0 0 155 143" data-background-color="#ffffff" preserveAspectRatio="xMidYMid meet" height="118" width="128" xmlns="http://www.w3.org/2000/svg" xmlns:xlink="http://www.w3.org/1999/xlink"><g id="tight-bounds" transform="matrix(1,0,0,1,0.25,-0.2101593625498026)"><svg viewBox="0 0 154.5 143.4203187250996" height="143.4203187250996" width="154.5"><g><svg viewBox="0 0 154.5 143.4203187250996" height="143.4203187250996" width="154.5"><g><svg viewBox="0 0 154.5 143.4203187250996" height="143.4203187250996" width="154.5"><g><svg viewBox="0 0 154.5 143.4203187250996" height="143.4203187250996" width="154.5"><g><svg viewBox="0 0 154.5 143.4203187250996" height="143.4203187250996" width="154.5"><g transform="matrix(1,0,0,1,0,0)"><svg width="154.5" viewBox="0 -34.95 37.65 34.95" height="143.4203187250996" data-palette-color="#ca3433"><path d="M32.8-2.15L37.65-2.15 37.65 0 26.85 0 18.5-11.75 10.75-11.75 10.75 0 0 0 0-2.15 4.85-2.15 4.85-34.95 17.85-34.95Q25.85-34.95 29.3-32.25 32.75-29.55 32.75-23.6L32.75-23.6Q32.75-14.95 25.2-12.7L25.2-12.7 32.8-2.15ZM18.1-17.1Q23.1-17.1 24.9-18.65 26.7-20.2 26.7-23.63 26.7-27.05 24.85-28.33 23-29.6 18.25-29.6L18.25-29.6 10.75-29.6 10.75-17.1 18.1-17.1Z" opacity="1" transform="matrix(1,0,0,1,0,0)" fill="#ca3433" class="undefined-text-0" data-fill-palette-color="primary" id="text-0"></path></svg></g></svg></g></svg></g></svg></g></svg></g><defs></defs></svg><rect width="154.5" height="143.4203187250996" fill="none" stroke="none" visibility="hidden"></rect></g></svg></g></svg>